{"title":"Love Connected ä¿æŒæ„›ä½  (2009) aka Bo chi oi nei","uid":14159490,"size":730845184,"categoryP":"video","categoryS":"movies","magnet":"?xt=urn:btih:a591bdc450fde2dda9e2a4d78d6f9386b4bdfb29&amp;dn=Love+Connected+%E4%BF%9D%E6%8C%81%E6%84%9B%E4%BD%A0+%282009%29+aka+Bo+chi+oi+nei&amp;tr=udp%3A%2F%2Ftracker.leechers-paradise.org%3A6969&amp;tr=udp%3A%2F%2Fzer0day.ch%3A1337&amp;tr=udp%3A%2F%2Fopen.demonii.com%3A1337&amp;tr=udp%3A%2F%2Ftracker.coppersurfer.tk%3A6969&amp;tr=udp%3A%2F%2Fexodus.desync.com%3A6969","seeders":0,"leechers":1,"uploader":null,"files":1,"time":1459702180,"description":"&quot;Love Connected&quot; is a story about the lives of 14people facing 5 different situations on Valentines Day. On Valentines Day, the probation period for Terry (Terry Wu) is over. Will the girl he loves, Debbie (Chelsea Tong), let him pass and becomes her real boyfriend? Wai (Justin Log) is a singer at the shopping mall, can he use his music to touch the girl, Bobo (Stephy Tang), he loves? Dragon and Tiger (I Love You Boyz) meets Goldfish (Miki Yeung) online as they have an adventurous day together on Valentines! Joe (Joey Leung) and Fong (Kay) are a couple who is in a rut after 7 years together, will this Valentines dinner be their last supper? Womaniser, Fai (Sammy Leung) plans to date 3 different girls on Valentines Day, but will his plan work or fail? All will be revealed in &quot;Love Connected&quot;!\r\n \nhttps://www.themoviedb.org/movie/65138-love-connected\r\n\r\n\r\nFormat                                   : AVI\r\nFormat/Info                              : Audio Video Interleave\r\nFile size                                : 697 MiB\r\nDuration                                 : 1h 35mn\r\nOverall bit rate mode                    : Variable\r\nOverall bit rate                         : 1 024 Kbps\r\nWriting application                      : VirtualDubMod 1.5.10.2 (build 2540/release)\r\nWriting library                          : VirtualDubMod build 2540/release\r\n\r\nVideo\r\nID                                       : 0\r\nFormat                                   : MPEG-4 Visual\r\nFormat profile                           : Advanced   \r\nFormat settings, BVOP                    : 2\r\nFormat settings, QPel                    : No\r\nFormat settings, GMC                     : No warppoints\r\nFormat settings, Matrix                  : Default (H.263)\r\nMuxing mode                              : Packed bitstream\r\nCodec ID                                 : XVID\r\nCodec ID/Hint                            : XviD\r\nDuration                                 : 1h 35mn\r\nBit rate                                 : 880 Kbps\r\nWidth                                    : 592 pixels\r\nHeight                                   : 336 pixels\r\nDisplay aspect ratio                     : 16:9\r\nFrame rate                               : 23.976 (23976/1000) fps\r\nColor space                              : YUV\r\nChroma subsampling                       : 4:2:0\r\nBit depth                                : 8 bits\r\nScan type                                : Progressive\r\nCompression mode                         : Lossy\r\nBits/(Pixel*Frame)                       : 0.184\r\nStream size                              : 599 MiB (86%)\r\nWriting library                          : XviD 1.2.1 (UTC 2008-12-04)\r\n\r\nAudio\r\nID                                       : 1\r\nFormat                                   : MPEG Audio\r\nFormat version                           : Version 1\r\nFormat profile                           : Layer 3\r\nMode                                     : Joint stereo\r\nMode extension                           : MS Stereo\r\nCodec ID                                 : 55\r\nCodec ID/Hint                            : MP3\r\nDuration                                 : 1h 35mn\r\nBit rate mode                            : Variable\r\nBit rate                                 : 128 Kbps\r\nChannel(s)                               : 2 channels\r\nSampling rate                            : 48.0 KHz\r\nCompression mode                         : Lossy\r\nStream size                              : 89.7 MiB (13%)\r\nAlignment                                : Aligned on interleaves\r\nInterleave, duration                     : 24 ms (0.58 video frame)\r\nInterleave, preload duration             : 478 ms\r\nWriting library                          : LAME3.90.\r\nEncoding settings                        : -m j -V 4 -q 2 -lowpass 17.6 --abr 128","torrent":{"xt":"urn:btih:a591bdc450fde2dda9e2a4d78d6f9386b4bdfb29","amp;dn":"Love+Connected+%E4%BF%9D%E6%8C%81%E6%84%9B%E4%BD%A0+%282009%29+aka+Bo+chi+oi+nei","amp;tr":["udp%3A%2F%2Ftracker.leechers-paradise.org%3A6969","udp%3A%2F%2Fzer0day.ch%3A1337","udp%3A%2F%2Fopen.demonii.com%3A1337","udp%3A%2F%2Ftracker.coppersurfer.tk%3A6969","udp%3A%2F%2Fexodus.desync.com%3A6969"],"infoHash":"a591bdc450fde2dda9e2a4d78d6f9386b4bdfb29","infoHashBuffer":{"type":"Buffer","data":[165,145,189,196,80,253,226,221,169,226,164,215,141,111,147,134,180,189,251,41]},"announce":[],"urlList":[]}}